<?xml version="1.0" encoding="UTF-8" standalone="no"?>
<!-- Created with Inkscape (http://www.inkscape.org/) -->

<svg
        width="192"
        height="192"
        viewBox="0 0 50.8 50.8"
        version="1.1"
        id="svg5"
        inkscape:version="1.1 (c68e22c387, 2021-05-23)"
        sodipodi:docname="file-icons.svg"
        xml:space="preserve"
        xmlns:inkscape="http://www.inkscape.org/namespaces/inkscape"
        xmlns:sodipodi="http://sodipodi.sourceforge.net/DTD/sodipodi-0.dtd"
        xmlns="http://www.w3.org/2000/svg"
><sodipodi:namedview
     id="namedview7"
     pagecolor="#505050"
     bordercolor="#ffffff"
     borderopacity="1"
     inkscape:pageshadow="0"
     inkscape:pageopacity="0"
     inkscape:pagecheckerboard="1"
     inkscape:document-units="mm"
     showgrid="false"
     units="px"
     inkscape:zoom="2"
     inkscape:cx="113.25"
     inkscape:cy="76.750001"
     inkscape:window-width="3840"
     inkscape:window-height="2071"
     inkscape:window-x="-9"
     inkscape:window-y="-9"
     inkscape:window-maximized="1"
     inkscape:current-layer="layer1"
     inkscape:showpageshadow="0"
     inkscape:deskcolor="#d1d1d1" /><defs
     id="defs2" /><g
     inkscape:label="Layer 1"
     inkscape:groupmode="layer"
     id="layer1"><g
       id="g1725"
       transform="translate(-19.05)"><path
         stroke="none"
         d="M 31.75,6.3500003 H 38.1 V 12.7 h -6.35 z"
         fill="none"
         id="path4359"
         style="stroke-width:0.529167;stroke-linecap:round;stroke-linejoin:round" /><path
         d="m 35.454167,7.1437503 v 1.0583333 a 0.26458333,0.26458333 0 0 0 0.264583,0.2645833 h 1.058333"
         id="path4361"
         style="fill:none;stroke:#ffffff;stroke-width:0.396875;stroke-linecap:round;stroke-linejoin:round;stroke-miterlimit:4;stroke-dasharray:none;stroke-opacity:1" /><path
         d="M 36.247917,11.90625 H 33.602083 A 0.52916666,0.52916666 0 0 1 33.072917,11.377083 V 7.6729169 a 0.52916666,0.52916666 0 0 1 0.529166,-0.5291666 h 1.852084 l 1.322916,1.3229166 v 2.9104161 a 0.52916666,0.52916666 0 0 1 -0.529166,0.529167 z"
         id="path4363"
         style="fill:none;stroke:#ffffff;stroke-width:0.396875;stroke-linecap:round;stroke-linejoin:round;stroke-miterlimit:4;stroke-dasharray:none;stroke-opacity:1" /><path
         d="M 34.395833,9.7895836 34.13125,10.31875 34.395833,10.847917"
         id="path4365"
         style="fill:none;stroke:#ffffff;stroke-width:0.396875;stroke-linecap:round;stroke-linejoin:round;stroke-miterlimit:4;stroke-dasharray:none;stroke-opacity:1" /><path
         d="M 35.454167,9.7895836 35.71875,10.31875 35.454167,10.847917"
         id="path4367"
         style="fill:none;stroke:#ffffff;stroke-width:0.396875;stroke-linecap:round;stroke-linejoin:round;stroke-miterlimit:4;stroke-dasharray:none;stroke-opacity:1" /></g><g
       id="g1729"
       transform="translate(-101.6,-6.3500003)"><path
         stroke="none"
         d="m 101.6,6.3500003 h 6.35 V 12.7 h -6.35 z"
         fill="none"
         id="path9954"
         style="stroke-width:0.529167;stroke-linecap:round;stroke-linejoin:round" /><path
         d="m 102.92292,7.4083336 h 1.05833 l 0.79375,0.79375 h 1.85208 a 0.52916666,0.52916666 0 0 1 0.52917,0.5291667 v 2.1166667 a 0.52916666,0.52916666 0 0 1 -0.52917,0.529167 h -3.70416 a 0.52916666,0.52916666 0 0 1 -0.52917,-0.529167 V 7.9375003 a 0.52916666,0.52916666 0 0 1 0.52917,-0.5291667"
         id="path9956"
         style="fill:none;stroke:#ffffff;stroke-width:0.396875;stroke-linecap:round;stroke-linejoin:round;stroke-miterlimit:4;stroke-dasharray:none;stroke-opacity:1" /></g><g
       id="g4527"
       transform="translate(6.3500002)"><path
         stroke="none"
         d="M 6.35,0 H 12.7 V 6.3499997 H 6.35 Z"
         fill="none"
         id="path10261"
         style="stroke-width:0.529167;stroke-linecap:round;stroke-linejoin:round" /><path
         d="M 7.67292,5.0270837 8.40237,3.0821312 A 0.26458333,0.26458333 0 0 1 8.65002,2.9104166 h 3.25623 a 0.26458333,0.26458333 0 0 1 0.26088,0.307975 L 11.9036,4.5971357 a 0.52916666,0.52916666 0 0 1 -0.51964,0.429948 H 7.67292 A 0.52916666,0.52916666 0 0 1 7.14375,4.4979167 V 1.5875 A 0.52916666,0.52916666 0 0 1 7.67292,1.0583333 h 1.05833 l 0.79375,0.79375 h 1.85208 A 0.52916666,0.52916666 0 0 1 11.90625,2.38125 v 0.5291666"
         id="path10263"
         style="fill:none;stroke:#ffffff;stroke-width:0.396875;stroke-linecap:round;stroke-linejoin:round;stroke-miterlimit:4;stroke-dasharray:none;stroke-opacity:1" /></g><g
       style="fill:none;stroke:#ffffff;stroke-width:1.5;stroke-linecap:round;stroke-linejoin:round"
       id="g4343"
       transform="matrix(0.26458333,0,0,0.26458333,6.3500001,6.3499997)"><path
         stroke="none"
         d="M 0,0 H 24 V 24 H 0 Z"
         fill="none"
         id="path4319" /><path
         d="m 14,3 v 4 a 1,1 0 0 0 1,1 h 4"
         id="path4321" /><path
         d="M 17,21 H 7 A 2,2 0 0 1 5,19 V 5 A 2,2 0 0 1 7,3 h 7 l 5,5 v 11 a 2,2 0 0 1 -2,2 z"
         id="path4323" /><path
         d="M 12,13.5 16,12"
         id="path4325" /><path
         d="M 8,11.846 12,13.5 V 18 l 4,-1.846 V 11.846 L 12,10 Z"
         id="path4327" /><path
         d="m 8,12 v 4.2 l 4,1.8"
         id="path4329" /></g><g
       id="g4182"
       transform="translate(16.331707,-38.463244)"><path
         stroke="none"
         d="m 2.7182932,44.813244 h 6.3499999 v 6.35 H 2.7182932 Z"
         fill="none"
         id="path4077"
         style="stroke-width:0.396875;stroke-linecap:round;stroke-linejoin:round" /><path
         d="m 6.4224598,45.606994 v 1.058333 a 0.26458333,0.26458333 0 0 0 0.2645834,0.264584 h 1.0583333"
         id="path4079"
         style="fill:none;stroke:#ffffff;stroke-width:0.396875;stroke-linecap:round;stroke-linejoin:round;stroke-miterlimit:4;stroke-dasharray:none;stroke-opacity:1" /><path
         d="M 7.2162098,50.369494 H 4.5703765 A 0.52916666,0.52916666 0 0 1 4.0412099,49.840327 v -3.704166 a 0.52916666,0.52916666 0 0 1 0.5291666,-0.529167 h 1.8520833 l 1.3229167,1.322917 v 2.910416 a 0.52916666,0.52916666 0 0 1 -0.5291667,0.529167 z"
         id="path4081"
         style="fill:none;stroke:#ffffff;stroke-width:0.396875;stroke-linecap:round;stroke-linejoin:round;stroke-miterlimit:4;stroke-dasharray:none;stroke-opacity:1" /><path
         d="m 5.6287098,49.046577 m -0.2645833,0 a 0.26458335,0.26458335 0 1 0 0.5291667,0 0.26458335,0.26458335 0 1 0 -0.5291667,0"
         id="path4083"
         style="fill:none;stroke:#ffffff;stroke-width:0.396875;stroke-linecap:round;stroke-linejoin:round;stroke-miterlimit:4;stroke-dasharray:none;stroke-opacity:1" /><path
         d="m 5.8932932,49.046577 v -1.322916 l 0.5291666,0.264583"
         id="path4085"
         style="fill:none;stroke:#ffffff;stroke-width:0.396875;stroke-linecap:round;stroke-linejoin:round;stroke-miterlimit:4;stroke-dasharray:none;stroke-opacity:1" /></g><g
       id="g4323"
       transform="translate(-8.705131,-12.364375)"><path
         stroke="none"
         d="m 8.7051306,18.714375 h 6.3500004 v 6.35 H 8.7051306 Z"
         fill="none"
         id="path4264"
         style="stroke-width:0.396875;stroke-linecap:round;stroke-linejoin:round" /><path
         d="m 12.409297,19.508125 v 1.058333 a 0.26458333,0.26458333 0 0 0 0.264584,0.264584 h 1.058333"
         id="path4266"
         style="fill:none;stroke:#ffffff;stroke-width:0.396875;stroke-linecap:round;stroke-linejoin:round;stroke-opacity:1" /><path
         d="m 13.203047,24.270625 h -2.645833 a 0.52916666,0.52916666 0 0 1 -0.529167,-0.529167 v -3.704166 a 0.52916666,0.52916666 0 0 1 0.529167,-0.529167 h 1.852083 l 1.322917,1.322917 v 2.910416 a 0.52916666,0.52916666 0 0 1 -0.529167,0.529167 z"
         id="path4268"
         style="fill:none;stroke:#ffffff;stroke-width:0.396875;stroke-linecap:round;stroke-linejoin:round;stroke-opacity:1" /></g><g
       id="g4523"
       transform="translate(-2.8462383,-18.527286)"><path
         stroke="none"
         d="m 9.1962384,18.527286 h 6.3499996 v 6.35 H 9.1962384 Z"
         fill="none"
         id="path4325-1"
         style="stroke-width:0.264583" /><path
         d="m 11.577488,19.321036 a 0.26458333,0.26458333 0 0 1 0.160867,0.0545 l 0.02646,0.02302 0.715963,0.716227 h 1.742546 a 0.79374999,0.79374999 0 0 1 0.792427,0.747183 l 0.0013,0.04657 v 2.116667 a 0.79374999,0.79374999 0 0 1 -0.747184,0.792427 l -0.04657,0.0013 H 10.519155 A 0.79374999,0.79374999 0 0 1 9.726728,23.071769 l -0.00132,-0.04657 v -2.910417 a 0.79374999,0.79374999 0 0 1 0.747183,-0.792427 l 0.04657,-0.0013 z"
         id="path4327-6"
         style="fill:#ffffff;fill-opacity:1;stroke-width:0.264583" /></g></g></svg>
